name Walk2.mot
datacolumns 19
datarows 25
range 2.52000000 2.64000000
endheader

                time	   L_ground_force_vx	   L_ground_force_vy	   L_ground_force_vz	   L_ground_force_px	   L_ground_force_py	   L_ground_force_pz	   R_ground_force_vx	   R_ground_force_vy	   R_ground_force_vz	   R_ground_force_px	   R_ground_force_py	   R_ground_force_pz	   L_ground_torque_x	   L_ground_torque_y	   L_ground_torque_z	   R_ground_torque_x	   R_ground_torque_y	   R_ground_torque_z	
          2.52000000	         -0.00000000	         -0.00000000	         -0.00000000	         -0.00000000	          0.00000000	         -0.00000000	         18.27049942	         76.73548465	         16.78916225	          0.43219269	          0.00000000	          0.09801083	          0.00000000	         -0.00000000	          0.00000000	          0.00000000	         -4.66432253	          0.00000000	
          2.52500000	         -0.00000000	         -0.00000000	          0.00000000	         -0.00000000	          0.00000000	         -0.00000000	         12.95317677	         54.76878991	         13.98770345	          0.39125922	          0.00000000	          0.08876769	          0.00000000	         -0.00000000	          0.00000000	          0.00000000	         -3.42621905	          0.00000000	
          2.53000000	         -0.00000000	         -0.00000000	          0.00000000	         -0.00000000	          0.00000000	         -0.00000000	          8.52748361	         36.76653423	         11.18759906	          0.34205141	          0.00000000	          0.07768229	          0.00000000	          0.00000000	          0.00000000	          0.00000000	         -2.37101763	          0.00000000	
          2.53500000	         -0.00000000	         -0.00000000	          0.00000000	          0.00000000	          0.00000000	          0.00000000	          5.01125613	         22.44447117	          8.53954827	          0.28655646	          0.00000000	          0.06516540	          0.00000000	          0.00000000	          0.00000000	          0.00000000	         -1.50872669	          0.00000000	
          2.54000000	         -0.00000000	         -0.00000000	          0.00000000	          0.00000000	          0.00000000	          0.00000000	          2.35906807	         11.49970329	          6.16974518	          0.22875407	          0.00000000	          0.05209207	          0.00000000	          0.00000000	          0.00000000	          0.00000000	         -0.83655045	          0.00000000	
          2.54500000	         -0.00000000	         -0.00000000	          0.00000000	          0.00000000	          0.00000000	          0.00000000	          0.47169018	          3.57163089	          4.16210517	          0.17359803	          0.00000000	          0.03958931	          0.00000000	          0.00000000	          0.00000000	          0.00000000	         -0.33933611	          0.00000000	
          2.55000000	         -0.00000000	         -0.00000000	          0.00000000	          0.00000000	          0.00000000	          0.00000000	         -0.77595369	         -1.79496117	          2.54547233	          0.12449802	          0.00000000	          0.02844050	          0.00000000	          0.00000000	          0.00000000	          0.00000000	          0.00635520	          0.00000000	
          2.55500000	         -0.00000000	         -0.00000000	          0.00000000	          0.00000000	          0.00000000	          0.00000000	         -1.51467498	         -5.09449297	          1.30744092	          0.08316485	          0.00000000	          0.01904168	          0.00000000	          0.00000000	          0.00000000	          0.00000000	          0.22753772	          0.00000000	
          2.56000000	         -0.00000000	         -0.00000000	          0.00000000	          0.00000000	          0.00000000	          0.00000000	         -1.86861016	         -6.80750600	          0.41011259	          0.05008136	          0.00000000	          0.01150843	          0.00000000	          0.00000000	          0.00000000	          0.00000000	          0.35138230	          0.00000000	
          2.56500000	         -0.00000000	         -0.00000000	          0.00000000	          0.00000000	          0.00000000	          0.00000000	         -1.94779746	         -7.36763666	         -0.19776163	          0.02490472	          0.00000000	          0.00576733	          0.00000000	          0.00000000	          0.00000000	          0.00000000	          0.40301134	          0.00000000	
          2.57000000	         -0.00000000	         -0.00000000	          0.00000000	          0.00000000	          0.00000000	          0.00000000	         -1.84453151	         -7.14414663	         -0.57193903	          0.00678977	          0.00000000	          0.00162955	          0.00000000	          0.00000000	          0.00000000	          0.00000000	          0.40424672	          0.00000000	
          2.57500000	          0.00000000	         -0.00000000	          0.00000000	          0.00000000	          0.00000000	          0.00000000	         -1.63242892	         -6.43581118	         -0.76665830	         -0.00536398	          0.00000000	         -0.00115281	          0.00000000	          0.00000000	          0.00000000	          0.00000000	          0.37306792	          0.00000000	
          2.58000000	          0.00000000	         -0.00000000	          0.00000000	          0.00000000	          0.00000000	          0.00000000	         -1.36730625	         -5.47257453	         -0.83089458	         -0.01273373	          0.00000000	         -0.00284591	          0.00000000	          0.00000000	          0.00000000	          0.00000000	          0.32356840	          0.00000000	
          2.58500000	          0.00000000	          0.00000000	          0.00000000	          0.00000000	          0.00000000	          0.00000000	         -1.08915083	         -4.42205506	         -0.80637436	         -0.01645271	          0.00000000	         -0.00370658	          0.00000000	          0.00000000	          0.00000000	          0.00000000	          0.26623496	          0.00000000	
          2.59000000	          0.00000000	          0.00000000	          0.00000000	          0.00000000	          0.00000000	          0.00000000	         -0.82463648	         -3.39864618	         -0.72687555	         -0.01753642	          0.00000000	         -0.00396537	          0.00000000	          0.00000000	          0.00000000	          0.00000000	          0.20841218	          0.00000000	
          2.59500000	          0.00000000	          0.00000000	         -0.00000000	          0.00000000	          0.00000000	          0.00000000	         -0.58978978	         -2.47356207	         -0.61840744	         -0.01684446	          0.00000000	         -0.00381771	          0.00000000	          0.00000000	          0.00000000	          0.00000000	          0.15484866	          0.00000000	
          2.60000000	          0.00000000	          0.00000000	         -0.00000000	          0.00000000	          0.00000000	          0.00000000	         -0.39254190	         -1.68469471	         -0.49994039	         -0.01506853	          0.00000000	         -0.00342109	          0.00000000	         -0.00000000	          0.00000000	          0.00000000	          0.10825276	          0.00000000	
          2.60500000	          0.00000000	          0.00000000	         -0.00000000	         -0.00000000	          0.00000000	         -0.00000000	         -0.23500534	         -1.04557036	         -0.38443052	         -0.01273792	          0.00000000	         -0.00289618	          0.00000000	         -0.00000000	          0.00000000	          0.00000000	          0.06981022	          0.00000000	
          2.61000000	          0.00000000	          0.00000000	         -0.00000000	         -0.00000000	          0.00000000	         -0.00000000	         -0.11539411	         -0.55302033	         -0.27995248	         -0.01023593	          0.00000000	         -0.00233051	          0.00000000	         -0.00000000	          0.00000000	          0.00000000	          0.03963663	          0.00000000	
          2.61500000	          0.00000000	          0.00000000	         -0.00000000	         -0.00000000	          0.00000000	         -0.00000000	         -0.02956347	         -0.19342031	         -0.19081188	         -0.00782191	          0.00000000	         -0.00178344	          0.00000000	         -0.00000000	          0.00000000	          0.00000000	          0.01715211	          0.00000000	
          2.62000000	          0.00000000	          0.00000000	         -0.00000000	         -0.00000000	          0.00000000	         -0.00000000	          0.02781617	          0.05248142	         -0.11855682	         -0.00565523	          0.00000000	         -0.00129156	          0.00000000	         -0.00000000	          0.00000000	          0.00000000	          0.00137669	          0.00000000	
          2.62500000	          0.00000000	          0.00000000	         -0.00000000	         -0.00000000	          0.00000000	         -0.00000000	          0.06241270	          0.20602279	         -0.06284465	         -0.00381852	          0.00000000	         -0.00087399	          0.00000000	         -0.00000000	          0.00000000	          0.00000000	         -0.00884865	          0.00000000	
          2.63000000	          0.00000000	          0.00000000	         -0.00000000	         -0.00000000	          0.00000000	         -0.00000000	          0.07966269	          0.28819199	         -0.02214725	         -0.00233867	          0.00000000	         -0.00053708	          0.00000000	         -0.00000000	          0.00000000	          0.00000000	         -0.01470615	          0.00000000	
          2.63500000	          0.00000000	          0.00000000	         -0.00000000	         -0.00000000	          0.00000000	         -0.00000000	          0.08442443	          0.31809300	          0.00570278	         -0.00120472	          0.00000000	         -0.00027856	          0.00000000	         -0.00000000	          0.00000000	          0.00000000	         -0.01729937	          0.00000000	
          2.64000000	          0.00000000	          0.00000000	         -0.00000000	         -0.00000000	          0.00000000	         -0.00000000	          0.08080108	          0.31211063	          0.02311144	         -0.00038225	          0.00000000	         -0.00009074	          0.00000000	         -0.00000000	          0.00000000	          0.00000000	         -0.01759418	          0.00000000	
